<?xml version="1.0" standalone="no"?>
<!DOCTYPE svg PUBLIC "-//W3C//DTD SVG 20010904//EN"
 "http://www.w3.org/TR/2001/REC-SVG-20010904/DTD/svg10.dtd">
<svg version="1.0" xmlns="http://www.w3.org/2000/svg"
 width="247.000000pt" height="247.000000pt" viewBox="0 0 247.000000 247.000000"
 preserveAspectRatio="xMidYMid meet">
<metadata>
Created by potrace 1.11, written by Peter Selinger 2001-2013
</metadata>
<g transform="translate(0.000000,247.000000) scale(0.100000,-0.100000)"
fill="#000000" stroke="none">
<path d="M1026 2373 c-3 -4 17 -13 46 -20 29 -8 65 -26 81 -41 26 -24 28 -32
24 -74 -4 -43 -2 -46 14 -37 30 15 64 69 61 92 -6 33 -29 54 -80 71 -47 16
-133 22 -146 9z"/>
<path d="M803 2283 c-39 -40 -83 -113 -83 -139 0 -8 12 -26 26 -39 l27 -25
-35 -77 c-29 -67 -56 -146 -86 -253 -7 -25 -8 -25 -146 -28 -80 -1 -144 2
-149 7 -12 12 16 93 67 191 46 89 65 117 125 189 69 82 13 48 -112 -69 -160
-149 -261 -352 -302 -605 -8 -50 -8 -235 1 -269 7 -28 30 -32 106 -20 l37 6 0
147 c-1 131 14 266 36 322 6 15 74 23 280 33 l30 1 -4 -196 c-2 -107 0 -210 4
-227 7 -36 17 -38 78 -20 l39 12 -5 45 c-21 166 -26 216 -29 300 -3 108 -10
100 102 132 204 59 302 103 465 209 36 23 63 45 61 47 -3 3 -17 -4 -33 -14
-31 -22 -178 -93 -233 -113 -19 -6 -44 -16 -55 -20 -61 -24 -248 -70 -287 -70
-13 0 -18 8 -18 30 0 58 32 185 62 248 25 52 34 62 57 63 57 2 129 15 194 36
74 24 64 31 -21 16 -87 -16 -141 -12 -177 11 -34 22 -33 74 1 126 36 54 24 61
-23 13z"/>
<path d="M1410 2009 l-35 -30 38 26 c33 24 43 35 34 35 -1 0 -18 -14 -37 -31z"/>
<path d="M2099 2003 c-24 -63 -223 -303 -252 -303 -6 0 -62 39 -124 86 -63 47
-117 83 -120 80 -6 -6 9 -45 61 -161 74 -162 73 -158 38 -151 -22 5 -36 -2
-77 -39 -48 -43 -129 -99 -205 -141 -32 -18 -34 -23 -32 -62 4 -51 -12 -55
-62 -17 -18 14 -38 25 -45 25 -9 0 -112 -63 -140 -86 -2 -2 4 -30 13 -62 20
-71 20 -82 2 -82 -13 0 -52 57 -106 152 -75 132 -176 298 -182 298 -5 0 -8
-85 -8 -188 l0 -189 -40 -11 c-93 -27 -200 -50 -270 -58 l-56 -6 -27 41 c-15
22 -27 42 -27 45 0 10 -77 130 -86 133 -5 2 -10 -46 -11 -108 -1 -61 -3 -112
-5 -114 -2 -1 -39 -6 -83 -9 -44 -4 -84 -11 -88 -15 -14 -14 -4 -76 13 -75 37
1 167 16 183 20 10 3 17 15 17 30 0 35 32 31 48 -6 11 -25 20 -30 47 -30 59 0
365 64 438 92 26 10 27 14 27 75 0 55 2 64 16 59 9 -3 18 -6 20 -6 2 0 4 -5 4
-11 0 -5 18 -37 40 -69 22 -32 40 -62 40 -65 0 -3 5 -11 11 -18 5 -7 49 -73
96 -147 143 -224 190 -277 171 -187 -15 68 -26 119 -36 162 -6 22 -15 65 -22
95 -7 30 -16 73 -21 95 -20 84 -22 115 -9 130 20 24 37 18 120 -44 43 -33 89
-65 101 -71 21 -12 21 -11 15 31 -11 83 -10 193 3 197 14 5 116 72 168 111
l32 24 87 -59 c47 -32 101 -70 120 -83 19 -13 37 -22 39 -19 3 3 -15 47 -39
99 -100 216 -100 215 -61 205 20 -5 35 4 87 57 35 34 81 85 103 112 22 28 43
52 46 55 9 8 74 102 88 128 10 18 9 28 -6 52 -22 37 -40 38 -54 3z"/>
<path d="M2192 1867 c-17 -18 -32 -40 -32 -48 0 -9 13 -40 29 -70 53 -100 86
-218 97 -346 6 -73 5 -85 -16 -117 -12 -20 -27 -42 -33 -49 -7 -6 -32 -39 -57
-72 -107 -144 -115 -142 -115 33 -1 136 -8 182 -47 317 -27 92 -38 103 -72 79
-30 -22 -31 -34 -10 -94 56 -154 79 -370 55 -512 -9 -55 -47 -94 -209 -215
-111 -82 -218 -138 -347 -181 -115 -38 -146 -44 -279 -51 -81 -4 -111 -10
-114 -20 -4 -12 15 -13 119 -7 128 7 164 14 284 48 127 37 240 86 317 140 14
10 29 18 33 18 3 0 33 18 65 40 32 22 64 40 69 40 19 0 11 -33 -22 -100 -63
-123 -90 -165 -154 -243 -74 -90 -51 -88 35 2 95 100 184 249 225 381 14 43
33 71 90 130 40 41 92 99 115 128 24 28 48 52 53 52 15 0 10 -60 -11 -145 -24
-94 -41 -146 -52 -160 -4 -5 -8 -16 -8 -25 0 -26 -78 -169 -124 -229 -69 -88
-173 -183 -271 -248 -89 -59 -250 -143 -277 -143 -7 0 -22 -8 -33 -16 -19 -15
-19 -15 10 -9 67 15 183 59 275 103 291 139 514 441 589 802 38 181 25 416
-31 585 -24 69 -79 192 -99 218 -13 17 -16 16 -47 -16z"/>
</g>
</svg>
